<svg xmlns="http://www.w3.org/2000/svg" xmlns:xlink="http://www.w3.org/1999/xlink" id="Layer_1" x="0px" y="0px" width="129.2929px" height="29.2218px" viewBox="0 0 129.2929 29.2218" style="enable-background:new 0 0 129.2929 29.2218;" xml:space="preserve">
<style type="text/css">
	.st0{fill:#FFFFFF;}
</style>
<g id="Artwork_7_00000005247997817515079760000007624191564244655498_">
	<g>
		<polygon class="st0" points="41.4262,20.5869 38.8816,11.4762 36.3387,20.5869 35.3278,20.5869 32.2957,9.9807 33.3072,9.9807     35.8619,19.3069 38.4692,9.9723 39.2963,9.9723 41.8869,19.3069 44.4482,9.9723 45.4591,9.9723 42.4448,20.5869   "></polygon>
		<g>
			<path class="st0" d="M50.9691,20.5868v-0.9059c-0.6642,0.7328-1.619,1.135-2.6073,1.098c-1.32,0-2.6884-0.9077-2.6884-2.5613     s1.3481-2.5488,2.6884-2.5488c1.0652,0,1.9383,0.3491,2.6073,1.0974v-1.5546c0-1.144-0.922-1.7646-2.0678-1.7646     c-0.9536,0-1.702,0.3336-2.4014,1.1297l-0.4613-0.5741c0.7406-0.8546,1.8279-1.3284,2.9576-1.2872     c1.5588,0,2.8,0.7477,2.8,2.4658v5.4055H50.9691z M50.9691,19.077v-1.6865c-0.5681-0.6988-1.4298-1.0927-2.3304-1.0646     c-1.2717,0-2.0982,0.808-2.0982,1.9079c0,1.0998,0.8265,1.8917,2.0982,1.8917C49.5369,20.1595,50.3992,19.7716,50.9691,19.077"></path>
			<path class="st0" d="M54.2111,19.1049l0.0006-5.458H52.94v-0.7394h1.2717v-2.0905h0.8426v2.0905h1.5582v0.7394h-1.5582v5.3345     c0,0.6188,0.2548,1.0497,0.7961,1.0497c0.3234-0.0018,0.6326-0.1337,0.8576-0.3664l0.3193,0.6367     c-0.3491,0.3336-0.8217,0.5067-1.3039,0.4774C54.7022,20.7789,54.2111,20.1582,54.2111,19.1049"></path>
			<path class="st0" d="M57.9791,16.7376c0-2.2235,1.5749-4.0222,3.7053-4.0222c2.3387,0,3.6265,1.8613,3.6265,4.0711v0.222h-6.4242     c0.0788,1.6697,1.1923,3.0542,3.0059,3.0542c0.9506,0.0155,1.8631-0.373,2.5124-1.067l0.4303,0.5413     c-0.7782,0.8247-1.8726,1.2765-3.0053,1.2419C59.5862,20.7789,57.9791,19.105,57.9791,16.7376 M61.6683,13.431     c-1.8195,0-2.7189,1.591-2.7815,2.9265h5.5809C64.4516,15.0619,63.5965,13.431,61.6683,13.431"></path>
			<path class="st0" d="M67.1097,20.5869v-7.6815h0.8271v1.3177c0.6505-0.857,1.5253-1.4776,2.5911-1.4776v0.9017     c-0.1367-0.0257-0.2757-0.0358-0.4147-0.0304c-0.7782,0-1.8195,0.6994-2.1764,1.3666l-0.0006,5.6036H67.1097z"></path>
			<path class="st0" d="M73.054,20.5869l0.0006-6.9398h-1.2717v-0.74h1.2717V12.206c0-1.4937,0.7961-2.3853,2.0839-2.3853     c0.5395-0.0239,1.067,0.1719,1.4609,0.5419l-0.4034,0.5717c-0.2626-0.2602-0.6177-0.4052-0.987-0.404     c-0.8749,0-1.3356,0.6063-1.3356,1.6697v0.7012h1.5581v0.746h-1.5581l-0.0006,6.9398H73.054z"></path>
			<path class="st0" d="M76.5539,16.7377c0-2.2414,1.4442-4.0222,3.6886-4.0222c2.2438,0,3.7047,1.7807,3.7047,4.0222     c0,2.242-1.431,4.0431-3.7053,4.0431C77.9683,20.7808,76.5533,18.9821,76.5539,16.7377 M83.0563,16.7377     c0-1.7002-1.0109-3.2744-2.8137-3.2744c-1.8028,0-2.8,1.5743-2.8,3.2744s1.0103,3.2935,2.7994,3.2935     S83.0563,18.4564,83.0563,16.7377"></path>
			<path class="st0" d="M85.7586,20.5869v-7.6815h0.8271v1.3177c0.6523-0.857,1.5253-1.4776,2.5912-1.4776v0.9017     c-0.1331-0.0251-0.2691-0.0352-0.404-0.0304c-0.7788,0-1.8303,0.6994-2.1794,1.3666l-0.0006,5.6036H85.7586z"></path>
			<path class="st0" d="M100.9028,16.7377c0-2.2414,1.4466-4.0222,3.6886-4.0222c2.2743,0,3.7047,1.7807,3.7047,4.0222     c0,2.242-1.4304,4.0431-3.7053,4.0431C102.3494,20.7784,100.9028,18.9821,100.9028,16.7377 M107.407,16.7377     c0-1.7002-1.0103-3.2744-2.8155-3.2744c-1.7807,0-2.7917,1.5743-2.7917,3.2744s1.0109,3.2935,2.7976,3.2935     C106.4044,20.0312,107.407,18.4564,107.407,16.7377"></path>
			<path class="st0" d="M110.1094,20.5869l0.0006-7.6815h0.8265v1.3177c0.6511-0.857,1.5259-1.4776,2.5917-1.4776v0.9017     c-0.1337-0.0251-0.2691-0.0352-0.4046-0.0304c-0.7806,0-1.8297,0.6994-2.1794,1.3666v5.6036H110.1094z"></path>
			<path class="st0" d="M96.1402,20.5872v-1.2258c-0.6063,0.8796-1.6041,1.4084-2.6729,1.4149c-2.035,0-3.4356-1.5581-3.4356-4.024     c0-2.4258,1.3982-4.0431,3.4362-4.0431c1.073,0.0107,2.0714,0.5478,2.6723,1.437v-4.166h0.8426v10.6069H96.1402z M96.1402,18.662     V14.86c-0.5568-0.8593-1.505-1.3839-2.5285-1.3988c-1.7026,0-2.6866,1.4316-2.6866,3.2912c0,1.8595,0.9841,3.2762,2.6866,3.2762     C94.6286,20.0185,95.5745,19.5076,96.1402,18.662"></path>
			<path class="st0" d="M114.6698,22.1092l0.4249-0.6373c0.8343,0.7304,1.9043,1.1362,3.0131,1.144     c1.7103,0,2.9253-1.0652,2.9253-3.1473v-1.172c-0.6445,1.0103-1.6393,1.8756-3.1169,1.8756     c-1.7992,0-3.5842-1.4955-3.5842-3.8163V16.323c0-2.3363,1.7849-3.8402,3.5842-3.8402c1.4919,0,2.5022,0.8587,3.1169,1.8189     v-1.6166h0.7155v6.824c0,1.1768-0.3497,2.1006-0.9501,2.7517c-0.6427,0.7012-1.6172,1.0807-2.7069,1.0807     C116.842,23.3439,115.6312,22.9077,114.6698,22.1092 M121.0754,16.3355v-0.0322c0.0084-1.696-1.36-3.0769-3.056-3.0847h-0.0286     c-1.5665,0-2.8824,1.1768-2.8824,3.0686v0.0322c0,1.8189,1.3463,3.1008,2.8824,3.1008     C119.6939,19.4178,121.073,18.0387,121.0754,16.3355"></path>
			<path class="st0" d="M99.4731,19.1352c0.401,0,0.7263,0.3246,0.7263,0.7257c0,0.401-0.3252,0.7263-0.7263,0.7263     c-0.4004,0-0.7257-0.3252-0.7257-0.7263C98.7474,19.4598,99.0726,19.1352,99.4731,19.1352"></path>
			<path class="st0" d="M14.7326,15.8845c0.2375-0.9835,3.6623-2.1024,5.2557-2.5434c-1.7294,0.1361-3.4582,0.441-5.1542,0.95     c-2.7463,0.9489-3.6958,1.8983-3.5263,2.5428c0,0.3724,0.848,1.2538,5.2897,0.6785l0.2715-0.6785     C16.9024,16.834,14.5971,16.7319,14.7326,15.8845"></path>
			<path class="st0" d="M15.7158,11.1372c0.9154-0.4404,3.8993,1.5934,5.2563,2.5768c-1.1876-1.2884-2.5094-2.4408-3.9339-3.4588     c-2.4414-1.5593-3.7638-1.7288-4.1708-1.2198c-0.3049,0.2029-0.5765,1.4239,2.6455,4.6112l0.6779-0.2035     C16.1562,13.4431,14.9018,11.5442,15.7158,11.1372"></path>
			<path class="st0" d="M20.1239,9.0689c0.882,0.4744,1.0169,4.1027,1.0169,5.7641c0.3396-1.7294,0.509-3.4582,0.4744-5.2217     c-0.2029-2.8818-0.8134-4.0687-1.4913-4.1022c-0.339-0.1026-1.3899,0.4404-2.035,4.8821l0.5771,0.441     C18.666,10.8658,19.3105,8.696,20.1239,9.0689"></path>
			<path class="st0" d="M19.7171,16.5966l0.1361,0.2369c0.2369-0.1695,0.4732-0.339,0.7113-0.5084l-0.339-0.1361L19.7171,16.5966z"></path>
			<path class="st0" d="M17.5469,18.1562c0,0.0674-0.034,0.1355-0.034,0.1695c0.6779-0.407,1.3224-0.848,1.9669-1.2884     c-0.034-0.0674-0.068-0.1695-0.068-0.2375C18.8019,17.2741,18.1908,17.7157,17.5469,18.1562"></path>
			<path class="st0" d="M14.0549,20.2582c0.8474-0.407,1.6614-0.8474,2.4414-1.3224l0.0674-0.1355     C15.7163,19.3428,14.8683,19.8178,14.0549,20.2582"></path>
			<path class="st0" d="M16.5299,18.8001l-0.034,0.1361c0.339-0.2035,0.7119-0.407,1.0509-0.6105     c0-0.068,0.0346-0.102,0.0346-0.1695C17.2079,18.3931,16.8689,18.5972,16.5299,18.8001"></path>
			<path class="st0" d="M18.5982,14.5619c-0.6785,1.1529-1.2884,2.3393-1.7975,3.5603c0.3055-0.2035,0.6111-0.407,0.882-0.6099     C17.9537,16.5282,18.2592,15.5454,18.5982,14.5619"></path>
			<path class="st0" d="M16.3603,23.6488c0.3055,0.2375,1.4919,0.1361,3.6277-3.8318l-0.373-0.6093c0,0-1.3899,1.7628-2.0338,1.1189     c-0.2041-0.2381-0.2041-0.8146-0.1367-1.4585c-0.3724,0.2375-0.7454,0.441-1.1524,0.6779     C15.5804,22.1569,15.7839,23.4119,16.3603,23.6488"></path>
			<polygon class="st0" points="20.5307,16.3251 20.7342,16.189 20.3272,16.1216 20.2252,16.189    "></polygon>
			<path class="st0" d="M24.7016,13.8159l-0.5431,0.4744c0,0,2.0009,1.0515,1.4585,1.7975     c-0.4756,0.5765-2.6114,0.4404-4.3403,0.2035l-0.3049,0.2035c1.2198,0.4064,2.5088,0.746,3.7972,0.9829     c2.8818,0.3396,4.1368-0.0674,4.3057-0.7113C29.2794,16.3928,28.9732,15.2744,24.7016,13.8159"></path>
			<path class="st0" d="M20.5989,19.8514c1.3558,2.5434,2.4414,3.3568,3.0513,3.1193c0.373-0.0334,1.0175-1.0175-0.2375-5.3571     l-0.6779-0.1695c0,0,0.339,2.3059-0.5431,2.3059c-0.6099-0.0346-1.4567-1.2544-2.1692-2.5434l-0.407,0.2709     C19.8863,18.2915,20.2253,19.0715,20.5989,19.8514"></path>
			<path class="st0" d="M18.903,14.9007c0.102,0.509,0.2375,0.9835,0.3736,1.4919l0.2363-0.1689     C19.2765,15.7147,19.039,15.2743,18.903,14.9007"></path>
			<path class="st0" d="M19.4118,16.8001L19.4118,16.8001c0.0334,0.0674,0.068,0.1695,0.068,0.2369     c0.1014-0.0674,0.2375-0.1695,0.3396-0.2369l-0.1367-0.2375L19.4118,16.8001z"></path>
			<path class="st0" d="M27.1767,9.0351c1.1858,1.6614-8.375,10.7149-19.6323,14.0711c0,0,6.7476-2.6102,11.7324-6.4755     c4.983-3.8658,5.0522-4.8493,5.1531-5.4258"></path>
			<path class="st0" d="M24.43,11.2051c0.2035,0.9835-2.4073,3.4582-3.6623,4.5438c1.5265-0.882,2.9504-1.8989,4.2388-3.0518     c2.0684-2.0344,2.5434-3.2888,2.1018-3.7978c-0.102-0.2369-1.1518-1.0169-5.0856,1.4919l0.102,0.7125     C22.1575,11.1371,24.1931,10.3577,24.43,11.2051"></path>
			<path class="st0" d="M27.1001,21.4058c0,0.3783-0.2966,0.6749-0.6833,0.6749c-0.3825,0-0.6869-0.2966-0.6869-0.6749     c0-0.37,0.3043-0.6666,0.6869-0.6666C26.8035,20.7392,27.1001,21.0358,27.1001,21.4058 M25.9006,21.4058     c0,0.2966,0.2196,0.5323,0.5204,0.5323c0.293,0,0.5078-0.2357,0.5078-0.5281c0-0.2966-0.2148-0.5371-0.512-0.5371     C26.1202,20.8729,25.9006,21.1134,25.9006,21.4058 M26.3105,21.7561h-0.154v-0.6672c0.0609-0.0125,0.1462-0.0209,0.2566-0.0209     c0.1259,0,0.1832,0.0209,0.2315,0.0489c0.0364,0.028,0.065,0.0818,0.065,0.1468c0,0.0734-0.0573,0.1301-0.1385,0.154v0.0084     c0.065,0.0245,0.102,0.0734,0.1223,0.1629c0.0203,0.1009,0.0322,0.142,0.0483,0.1671h-0.1665     c-0.0203-0.0251-0.0322-0.0859-0.0525-0.1635c-0.0131-0.0734-0.0531-0.105-0.1384-0.105h-0.074V21.7561z M26.3153,21.3778h0.0722     c0.0865,0,0.1558-0.0286,0.1558-0.0979c0-0.0615-0.0448-0.1014-0.1426-0.1014c-0.0406,0-0.0692,0.0042-0.0853,0.0084V21.3778z"></path>
		</g>
	</g>
</g>
</svg>